<svg width="34" height="34" viewBox="0 0 34 34" fill="none" xmlns="http://www.w3.org/2000/svg">
<circle cx="17" cy="17" r="17" fill="#31BC3C"/>
<path d="M17.5 24.5C22.3247 24.5 26.25 20.5747 26.25 15.75C26.25 10.9253 22.3247 7 17.5 7C12.6753 7 8.75 10.9253 8.75 15.75C8.75 20.5747 12.6753 24.5 17.5 24.5ZM17.5 8.75C21.3596 8.75 24.5 11.8904 24.5 15.75C24.5 19.6096 21.3596 22.75 17.5 22.75C13.6404 22.75 10.5 19.6096 10.5 15.75C10.5 11.8904 13.6404 8.75 17.5 8.75ZM28 24.9375C28 26.6262 26.6262 28 24.9375 28H10.0625C8.37375 28 7 26.6262 7 24.9375C7 23.9803 7.45675 23.0659 8.2215 22.4901C8.60825 22.1996 9.15688 22.2784 9.4465 22.6625C9.737 23.0484 9.66 23.597 9.27412 23.8875C8.94075 24.1377 8.75 24.521 8.75 24.9366C8.75 25.6603 9.33887 26.2491 10.0625 26.2491H24.9375C25.6611 26.2491 26.25 25.6603 26.25 24.9366C26.25 24.5201 26.0584 24.1377 25.725 23.8866C25.3391 23.5952 25.2621 23.0466 25.5535 22.6608C25.8431 22.2766 26.3926 22.1979 26.7785 22.4892C27.5546 23.0755 28 23.9671 28 24.9375ZM19.25 17.5C19.25 17.1684 19.0129 16.8893 18.6865 16.8341L16.0256 16.3914C14.8514 16.1954 14 15.1891 14 14C14 12.5527 15.1777 11.375 16.625 11.375V10.5C16.625 10.0161 17.017 9.625 17.5 9.625C17.983 9.625 18.375 10.0161 18.375 10.5V11.375H18.6095C19.5431 11.375 20.4146 11.8773 20.8828 12.6866C21.1243 13.1058 20.9816 13.6404 20.5634 13.8819C20.146 14.1251 19.6105 13.9807 19.3681 13.5634C19.2115 13.2921 18.921 13.125 18.6095 13.125H16.625C16.1429 13.125 15.75 13.517 15.75 14C15.75 14.3316 15.9871 14.6107 16.3135 14.6659L18.9744 15.1086C20.1486 15.3046 21 16.3109 21 17.5C21 18.9473 19.8223 20.125 18.375 20.125V21C18.375 21.4839 17.983 21.875 17.5 21.875C17.017 21.875 16.625 21.4839 16.625 21V20.125H16.3905C15.4569 20.125 14.5854 19.6228 14.1172 18.8134C13.8757 18.3943 14.0184 17.8596 14.4366 17.6181C14.8531 17.3749 15.3895 17.5192 15.6319 17.9366C15.7885 18.2079 16.079 18.375 16.3905 18.375H18.375C18.8571 18.375 19.25 17.983 19.25 17.5Z" fill="white"/>
</svg>
