<svg width="34" height="34" viewBox="0 0 34 34" fill="none" xmlns="http://www.w3.org/2000/svg">
<circle cx="17" cy="17" r="17" fill="#A766FF"/>
<path d="M19.3292 10.016C20.4255 9.081 21.5833 7.68033 21.5833 5.91667V5H12.4166V5.91667C12.4166 7.68033 13.5744 9.08008 14.6707 10.016C10.3578 11.5533 6.91663 17.0303 6.91663 21.5C6.91663 24.5333 9.38338 27 12.4166 27H21.5833C24.6165 27 27.0833 24.5333 27.0833 21.5C27.0833 17.0303 23.6421 11.5533 19.3292 10.016ZM14.4397 6.83333H19.5575C19.0799 7.98467 17.825 8.95083 17.0064 9.44767C16.317 9.026 14.943 8.06167 14.4406 6.83333H14.4397ZM21.5833 25.1667H12.4166C10.3945 25.1667 8.74996 23.5222 8.74996 21.5C8.74996 16.7691 12.9575 11.4323 16.9981 11.4323C21.0388 11.4323 25.25 16.77 25.25 21.5C25.25 23.5222 23.6055 25.1667 21.5833 25.1667ZM15.1666 16.9167C15.1666 17.2632 15.415 17.5565 15.757 17.6133L18.5455 18.0781C19.7747 18.2825 20.6675 19.3367 20.6675 20.5833C20.6675 22.0995 19.4337 23.3333 17.9175 23.3333V24.25H16.0842V23.3333C14.568 23.3333 13.3342 22.0995 13.3342 20.5833H15.1675C15.1675 21.0884 15.5791 21.5 16.0842 21.5H17.9175C18.4226 21.5 18.8342 21.0884 18.8342 20.5833C18.8342 20.2368 18.5858 19.9435 18.2439 19.8867L15.4554 19.4219C14.2261 19.2175 13.3333 18.1633 13.3333 16.9167C13.3333 15.4005 14.5671 14.1667 16.0833 14.1667V13.25H17.9166V14.1667C19.4328 14.1667 20.6666 15.4005 20.6666 16.9167H18.8333C18.8333 16.4116 18.4217 16 17.9166 16H16.0833C15.5782 16 15.1666 16.4116 15.1666 16.9167Z" fill="white"/>
</svg>
