<svg width="22" height="21" viewBox="0 0 22 21" fill="none" xmlns="http://www.w3.org/2000/svg">
<g clip-path="url(#clip0_70_2742)">
<path d="M11.905 3.5C11.905 3.73206 11.9972 3.95462 12.1613 4.11872C12.3254 4.28281 12.548 4.375 12.78 4.375H16.2503C16.1859 3.80684 15.9365 3.2756 15.5407 2.863L13.5422 0.798875C13.105 0.355729 12.525 0.0817027 11.905 0.025375V3.5ZM10.155 3.5V0H6.65503C5.49513 0.00138938 4.38314 0.462772 3.56297 1.28294C2.7428 2.10311 2.28142 3.2151 2.28003 4.375V13.125C2.28142 14.2849 2.7428 15.3969 3.56297 16.2171C4.38314 17.0372 5.49513 17.4986 6.65503 17.5H11.905C13.0649 17.4986 14.1769 17.0372 14.9971 16.2171C15.8173 15.3969 16.2786 14.2849 16.28 13.125V6.125H12.78C12.0838 6.125 11.4162 5.84844 10.9239 5.35616C10.4316 4.86387 10.155 4.19619 10.155 3.5ZM15.405 21H7.53003C7.29797 21 7.07541 20.9078 6.91131 20.7437C6.74722 20.5796 6.65503 20.3571 6.65503 20.125C6.65503 19.8929 6.74722 19.6704 6.91131 19.5063C7.07541 19.3422 7.29797 19.25 7.53003 19.25H15.405C16.1012 19.25 16.7689 18.9734 17.2612 18.4812C17.7535 17.9889 18.03 17.3212 18.03 16.625V7C18.03 6.76794 18.1222 6.54538 18.2863 6.38128C18.4504 6.21719 18.673 6.125 18.905 6.125C19.1371 6.125 19.3597 6.21719 19.5238 6.38128C19.6878 6.54538 19.78 6.76794 19.78 7V16.625C19.7786 17.7849 19.3173 18.8969 18.4971 19.7171C17.6769 20.5372 16.5649 20.9986 15.405 21Z" fill="#31BC3C"/>
</g>
<defs>
<clipPath id="clip0_70_2742">
<rect width="21" height="21" fill="white" transform="translate(0.530029)"/>
</clipPath>
</defs>
</svg>
