<svg width="32" height="25" viewBox="0 0 32 25" fill="none" xmlns="http://www.w3.org/2000/svg">
<path d="M0 1.62044C0 0.887109 0.6 0.287109 1.33333 0.287109H24C24.7333 0.287109 25.3333 0.887109 25.3333 1.62044C25.3333 2.35378 24.7333 2.95378 24 2.95378H1.33333C0.6 2.95378 0 2.35378 0 1.62044ZM24 21.6204H1.33333C0.6 21.6204 0 22.2204 0 22.9538C0 23.6871 0.6 24.2871 1.33333 24.2871H24C24.7333 24.2871 25.3333 23.6871 25.3333 22.9538C25.3333 22.2204 24.7333 21.6204 24 21.6204ZM30.6667 10.9538H8C7.26667 10.9538 6.66667 11.5538 6.66667 12.2871C6.66667 13.0204 7.26667 13.6204 8 13.6204H30.6667C31.4 13.6204 32 13.0204 32 12.2871C32 11.5538 31.4 10.9538 30.6667 10.9538Z" fill="white"/>
</svg>
