<svg width="35" height="35" viewBox="0 0 35 35" fill="none" xmlns="http://www.w3.org/2000/svg">
<circle cx="17.3252" cy="17.2778" r="17" fill="#31BC3C"/>
<path fill-rule="evenodd" clip-rule="evenodd" d="M11.6318 22.6599C11.9702 23.1768 12.369 23.6553 12.8219 24.0845C13.9441 25.1482 15.3504 25.8638 16.8708 26.1449C18.3912 26.426 19.9605 26.2605 21.3888 25.6684C22.8171 25.0763 24.0432 24.0829 24.9188 22.8086C25.7944 21.5342 26.2819 20.0335 26.3224 18.4878C26.363 16.9422 25.9547 15.418 25.1471 14.0995C24.3395 12.781 23.1671 11.7248 21.7718 11.0587C20.8274 10.6079 19.8084 10.3488 18.7731 10.2908L19.3283 12.3627C19.8734 12.4551 20.406 12.6229 20.9101 12.8636C21.9566 13.3632 22.8359 14.1553 23.4416 15.1442C24.0473 16.133 24.3535 17.2762 24.3231 18.4354C24.2927 19.5947 23.9271 20.7202 23.2704 21.676C22.6137 22.6318 21.6941 23.3767 20.6229 23.8208C19.5517 24.2649 18.3747 24.389 17.2344 24.1782C16.0941 23.9674 15.0393 23.4307 14.1977 22.633C14.022 22.4664 13.8571 22.2899 13.7037 22.1047L11.6318 22.6599Z" fill="white"/>
<path d="M12.2376 10.3443C13.0144 9.7482 13.8732 9.27055 14.7856 8.92522C15.205 8.76651 15.4147 8.68715 15.6121 8.78836C15.8096 8.88957 15.8717 9.12122 15.9958 9.5845L18.0664 17.3119C18.1884 17.7672 18.2494 17.9949 18.1458 18.1743C18.0423 18.3536 17.8146 18.4146 17.3593 18.5367L9.63186 20.6072C9.16858 20.7313 8.93694 20.7934 8.75054 20.673C8.56415 20.5526 8.52804 20.3313 8.4558 19.8888C8.29864 18.9259 8.28294 17.9434 8.41075 16.9726C8.58216 15.6706 9.00833 14.4151 9.66494 13.2778C10.3216 12.1406 11.1957 11.1437 12.2376 10.3443Z" stroke="white" stroke-width="2"/>
</svg>
