<svg width="34" height="34" viewBox="0 0 34 34" fill="none" xmlns="http://www.w3.org/2000/svg">
<circle cx="17" cy="17" r="17" fill="#31BC3C"/>
<path fill-rule="evenodd" clip-rule="evenodd" d="M13.5278 21.8308C13.1483 21.8308 12.8403 21.5088 12.8403 21.112V14.5378C12.8403 14.1411 13.1483 13.8191 13.5278 13.8191C13.9073 13.8191 14.2153 14.1411 14.2153 14.5378V21.112C14.2153 21.5088 13.9073 21.8308 13.5278 21.8308" fill="white"/>
<path fill-rule="evenodd" clip-rule="evenodd" d="M17.8059 21.8298C17.4264 21.8298 17.1184 21.5078 17.1184 21.111V11.3906C17.1184 10.9939 17.4264 10.6719 17.8059 10.6719C18.1854 10.6719 18.4934 10.9939 18.4934 11.3906V21.111C18.4934 21.5078 18.1854 21.8298 17.8059 21.8298" fill="white"/>
<path fill-rule="evenodd" clip-rule="evenodd" d="M22.0137 21.8297C21.6342 21.8297 21.3262 21.5077 21.3262 21.111V18.0117C21.3262 17.615 21.6342 17.293 22.0137 17.293C22.3932 17.293 22.7012 17.615 22.7012 18.0117V21.111C22.7012 21.5077 22.3932 21.8297 22.0137 21.8297" fill="white"/>
<path fill-rule="evenodd" clip-rule="evenodd" d="M13.4754 7.39575C10.9344 7.39575 9.29175 9.21371 9.29175 12.0293V20.4914C9.29175 23.307 10.9344 25.1249 13.4754 25.1249H22.0664C24.6083 25.1249 26.2501 23.307 26.2501 20.4914V12.0293C26.2501 9.21371 24.6083 7.39575 22.0664 7.39575H13.4754ZM22.0664 26.5624H13.4754C10.1507 26.5624 7.91675 24.1225 7.91675 20.4914V12.0293C7.91675 8.39817 10.1507 5.95825 13.4754 5.95825H22.0664C25.3912 5.95825 27.6251 8.39817 27.6251 12.0293V20.4914C27.6251 24.1225 25.3912 26.5624 22.0664 26.5624V26.5624Z" fill="white"/>
</svg>
